<svg width="32" height="32" viewBox="0 0 32 32" fill="none" xmlns="http://www.w3.org/2000/svg">
<path fill-rule="evenodd" clip-rule="evenodd" d="M31 32C31.5523 32 32 31.5523 32 31L32 11.6667C32 11.1144 31.5523 10.6667 31 10.6667L21.3333 10.6667L21.3333 0.999999C21.3333 0.447715 20.8856 -4.85826e-07 20.3333 -5.09967e-07L0.999981 -1.35505e-06C0.447695 -1.3792e-06 -1.90931e-05 0.447715 -1.91172e-05 1L-1.99623e-05 20.3333C-1.99864e-05 20.8856 0.447694 21.3333 0.99998 21.3333L10.6667 21.3333L10.6667 31C10.6667 31.5523 11.1144 32 11.6667 32L31 32ZM10.6667 21.3333L20.3333 21.3333C20.8856 21.3333 21.3333 20.8856 21.3333 20.3333L21.3333 10.6667L11.6667 10.6667C11.1144 10.6667 10.6667 11.1144 10.6667 11.6667L10.6667 21.3333Z" fill="url(#paint0_linear_304_45)"/>
<defs>
<linearGradient id="paint0_linear_304_45" x1="16" y1="32" x2="16" y2="4.76837e-07" gradientUnits="userSpaceOnUse">
<stop stop-color="#224ABE"/>
<stop offset="1" stop-color="#4E73DF" stop-opacity="0.88"/>
</linearGradient>
</defs>
</svg>
