<svg width="114" height="32" viewBox="0 0 114 32" fill="none" xmlns="http://www.w3.org/2000/svg">
<path fill-rule="evenodd" clip-rule="evenodd" d="M31 32C31.5523 32 32 31.5523 32 31L32 11.6667C32 11.1144 31.5523 10.6667 31 10.6667L21.3333 10.6667L21.3333 1C21.3333 0.447715 20.8856 -4.85826e-07 20.3333 -5.09967e-07L0.999985 -1.35505e-06C0.4477 -1.37919e-06 -1.52784e-05 0.447715 -1.53025e-05 1L-1.61476e-05 20.3333C-1.61717e-05 20.8856 0.447699 21.3333 0.999983 21.3333L10.6667 21.3333L10.6667 31C10.6667 31.5523 11.1144 32 11.6667 32L31 32ZM10.6667 21.3333L20.3333 21.3333C20.8856 21.3333 21.3333 20.8856 21.3333 20.3333L21.3333 10.6667L11.6667 10.6667C11.1144 10.6667 10.6667 11.1144 10.6667 11.6667L10.6667 21.3333Z" fill="white"/>
<path d="M41.632 24.5V7.7H44.704V22.1H52.144V24.5H41.632ZM59.9517 24.788C58.7997 24.788 57.7597 24.524 56.8317 23.996C55.9197 23.468 55.1917 22.74 54.6477 21.812C54.1197 20.868 53.8557 19.78 53.8557 18.548C53.8557 17.316 54.1277 16.236 54.6717 15.308C55.2157 14.364 55.9437 13.628 56.8557 13.1C57.7837 12.572 58.8237 12.308 59.9757 12.308C61.1117 12.308 62.1357 12.572 63.0477 13.1C63.9757 13.628 64.7037 14.364 65.2317 15.308C65.7757 16.236 66.0477 17.316 66.0477 18.548C66.0477 19.78 65.7757 20.868 65.2317 21.812C64.7037 22.74 63.9757 23.468 63.0477 23.996C62.1197 24.524 61.0877 24.788 59.9517 24.788ZM59.9517 22.124C60.7517 22.124 61.4477 21.828 62.0397 21.236C62.6317 20.628 62.9277 19.732 62.9277 18.548C62.9277 17.364 62.6317 16.476 62.0397 15.884C61.4477 15.276 60.7597 14.972 59.9757 14.972C59.1597 14.972 58.4557 15.276 57.8637 15.884C57.2877 16.476 56.9997 17.364 56.9997 18.548C56.9997 19.732 57.2877 20.628 57.8637 21.236C58.4557 21.828 59.1517 22.124 59.9517 22.124ZM68.7944 24.5V12.596H71.5064L71.7464 14.612C72.1144 13.908 72.6424 13.348 73.3304 12.932C74.0344 12.516 74.8584 12.308 75.8024 12.308C77.2744 12.308 78.4184 12.772 79.2344 13.7C80.0504 14.628 80.4584 15.988 80.4584 17.78V24.5H77.3864V18.068C77.3864 17.044 77.1784 16.26 76.7624 15.716C76.3464 15.172 75.6984 14.9 74.8184 14.9C73.9544 14.9 73.2424 15.204 72.6824 15.812C72.1384 16.42 71.8664 17.268 71.8664 18.356V24.5H68.7944ZM88.8679 24.788C87.7479 24.788 86.7479 24.516 85.8679 23.972C84.9879 23.428 84.2919 22.684 83.7799 21.74C83.2679 20.796 83.0119 19.724 83.0119 18.524C83.0119 17.324 83.2679 16.26 83.7799 15.332C84.2919 14.388 84.9879 13.652 85.8679 13.124C86.7479 12.58 87.7479 12.308 88.8679 12.308C89.7639 12.308 90.5479 12.476 91.2199 12.812C91.8919 13.148 92.4359 13.62 92.8519 14.228V7.22H95.9239V24.5H93.1879L92.8519 22.796C92.4679 23.324 91.9559 23.788 91.3159 24.188C90.6919 24.588 89.8759 24.788 88.8679 24.788ZM89.5159 22.1C90.5079 22.1 91.3159 21.772 91.9399 21.116C92.5799 20.444 92.8999 19.588 92.8999 18.548C92.8999 17.508 92.5799 16.66 91.9399 16.004C91.3159 15.332 90.5079 14.996 89.5159 14.996C88.5399 14.996 87.7319 15.324 87.0919 15.98C86.4519 16.636 86.1319 17.484 86.1319 18.524C86.1319 19.564 86.4519 20.42 87.0919 21.092C87.7319 21.764 88.5399 22.1 89.5159 22.1ZM99.0522 24.5V12.596H101.788L102.076 14.828C102.508 14.06 103.092 13.452 103.828 13.004C104.58 12.54 105.46 12.308 106.468 12.308V15.548H105.604C104.932 15.548 104.332 15.652 103.804 15.86C103.276 16.068 102.86 16.428 102.556 16.94C102.268 17.452 102.124 18.164 102.124 19.076V24.5H99.0522ZM110.224 10.748C109.664 10.748 109.2 10.58 108.832 10.244C108.48 9.908 108.304 9.484 108.304 8.972C108.304 8.46 108.48 8.044 108.832 7.724C109.2 7.388 109.664 7.22 110.224 7.22C110.784 7.22 111.24 7.388 111.592 7.724C111.96 8.044 112.144 8.46 112.144 8.972C112.144 9.484 111.96 9.908 111.592 10.244C111.24 10.58 110.784 10.748 110.224 10.748ZM108.688 24.5V12.596H111.76V24.5H108.688Z" fill="white"/>
</svg>
